<svg xmlns="http://www.w3.org/2000/svg" width="1200" height="1200" viewBox="0 0 1200 1200">
<defs>
 <linearGradient id="bg" x1="0" y1="0" x2="0.4" y2="1">
   <stop offset="0" stop-color="#0c1119"/><stop offset="1" stop-color="#05070c"/></linearGradient>
 <filter id="glow" x="-60%" y="-60%" width="220%" height="220%">
   <feGaussianBlur stdDeviation="5" result="b"/><feMerge>
   <feMergeNode in="b"/><feMergeNode in="SourceGraphic"/></feMerge></filter>
 <filter id="soft" x="-40%" y="-40%" width="180%" height="180%">
   <feDropShadow dx="0" dy="0" stdDeviation="7" flood-color="#3fb950" flood-opacity="0.35"/></filter>
 <radialGradient id="vig" cx="0.5" cy="0.42" r="0.85">
   <stop offset="0.55" stop-color="#000" stop-opacity="0"/>
   <stop offset="1" stop-color="#000" stop-opacity="0.6"/></radialGradient>
</defs>
<rect width="1200" height="1200" fill="url(#bg)"/>
<circle cx="30" cy="30" r="1.5" fill="#161d2b"/><circle cx="70" cy="30" r="1.5" fill="#161d2b"/><circle cx="110" cy="30" r="1.5" fill="#161d2b"/><circle cx="150" cy="30" r="1.5" fill="#161d2b"/><circle cx="190" cy="30" r="1.5" fill="#161d2b"/><circle cx="230" cy="30" r="1.5" fill="#161d2b"/><circle cx="270" cy="30" r="1.5" fill="#161d2b"/><circle cx="310" cy="30" r="1.5" fill="#161d2b"/><circle cx="350" cy="30" r="1.5" fill="#161d2b"/><circle cx="390" cy="30" r="1.5" fill="#161d2b"/><circle cx="430" cy="30" r="1.5" fill="#161d2b"/><circle cx="470" cy="30" r="1.5" fill="#161d2b"/><circle cx="510" cy="30" r="1.5" fill="#161d2b"/><circle cx="550" cy="30" r="1.5" fill="#161d2b"/><circle cx="590" cy="30" r="1.5" fill="#161d2b"/><circle cx="630" cy="30" r="1.5" fill="#161d2b"/><circle cx="670" cy="30" r="1.5" fill="#161d2b"/><circle cx="710" cy="30" r="1.5" fill="#161d2b"/><circle cx="750" cy="30" r="1.5" fill="#161d2b"/><circle cx="790" cy="30" r="1.5" fill="#161d2b"/><circle cx="830" cy="30" r="1.5" fill="#161d2b"/><circle cx="870" cy="30" r="1.5" fill="#161d2b"/><circle cx="910" cy="30" r="1.5" fill="#161d2b"/><circle cx="950" cy="30" r="1.5" fill="#161d2b"/><circle cx="990" cy="30" r="1.5" fill="#161d2b"/><circle cx="1030" cy="30" r="1.5" fill="#161d2b"/><circle cx="1070" cy="30" r="1.5" fill="#161d2b"/><circle cx="1110" cy="30" r="1.5" fill="#161d2b"/><circle cx="1150" cy="30" r="1.5" fill="#161d2b"/><circle cx="1190" cy="30" r="1.5" fill="#161d2b"/><circle cx="30" cy="70" r="1.5" fill="#161d2b"/><circle cx="70" cy="70" r="1.5" fill="#161d2b"/><circle cx="110" cy="70" r="1.5" fill="#161d2b"/><circle cx="150" cy="70" r="1.5" fill="#161d2b"/><circle cx="190" cy="70" r="1.5" fill="#161d2b"/><circle cx="230" cy="70" r="1.5" fill="#161d2b"/><circle cx="270" cy="70" r="1.5" fill="#161d2b"/><circle cx="310" cy="70" r="1.5" fill="#161d2b"/><circle cx="350" cy="70" r="1.5" fill="#161d2b"/><circle cx="390" cy="70" r="1.5" fill="#161d2b"/><circle cx="430" cy="70" r="1.5" fill="#161d2b"/><circle cx="470" cy="70" r="1.5" fill="#161d2b"/><circle cx="510" cy="70" r="1.5" fill="#161d2b"/><circle cx="550" cy="70" r="1.5" fill="#161d2b"/><circle cx="590" cy="70" r="1.5" fill="#161d2b"/><circle cx="630" cy="70" r="1.5" fill="#161d2b"/><circle cx="670" cy="70" r="1.5" fill="#161d2b"/><circle cx="710" cy="70" r="1.5" fill="#161d2b"/><circle cx="750" cy="70" r="1.5" fill="#161d2b"/><circle cx="790" cy="70" r="1.5" fill="#161d2b"/><circle cx="830" cy="70" r="1.5" fill="#161d2b"/><circle cx="870" cy="70" r="1.5" fill="#161d2b"/><circle cx="910" cy="70" r="1.5" fill="#161d2b"/><circle cx="950" cy="70" r="1.5" fill="#161d2b"/><circle cx="990" cy="70" r="1.5" fill="#161d2b"/><circle cx="1030" cy="70" r="1.5" fill="#161d2b"/><circle cx="1070" cy="70" r="1.5" fill="#161d2b"/><circle cx="1110" cy="70" r="1.5" fill="#161d2b"/><circle cx="1150" cy="70" r="1.5" fill="#161d2b"/><circle cx="1190" cy="70" r="1.5" fill="#161d2b"/><circle cx="30" cy="110" r="1.5" fill="#161d2b"/><circle cx="70" cy="110" r="1.5" fill="#161d2b"/><circle cx="110" cy="110" r="1.5" fill="#161d2b"/><circle cx="150" cy="110" r="1.5" fill="#161d2b"/><circle cx="190" cy="110" r="1.5" fill="#161d2b"/><circle cx="230" cy="110" r="1.5" fill="#161d2b"/><circle cx="270" cy="110" r="1.5" fill="#161d2b"/><circle cx="310" cy="110" r="1.5" fill="#161d2b"/><circle cx="350" cy="110" r="1.5" fill="#161d2b"/><circle cx="390" cy="110" r="1.5" fill="#161d2b"/><circle cx="430" cy="110" r="1.5" fill="#161d2b"/><circle cx="470" cy="110" r="1.5" fill="#161d2b"/><circle cx="510" cy="110" r="1.5" fill="#161d2b"/><circle cx="550" cy="110" r="1.5" fill="#161d2b"/><circle cx="590" cy="110" r="1.5" fill="#161d2b"/><circle cx="630" cy="110" r="1.5" fill="#161d2b"/><circle cx="670" cy="110" r="1.5" fill="#161d2b"/><circle cx="710" cy="110" r="1.5" fill="#161d2b"/><circle cx="750" cy="110" r="1.5" fill="#161d2b"/><circle cx="790" cy="110" r="1.5" fill="#161d2b"/><circle cx="830" cy="110" r="1.5" fill="#161d2b"/><circle cx="870" cy="110" r="1.5" fill="#161d2b"/><circle cx="910" cy="110" r="1.5" fill="#161d2b"/><circle cx="950" cy="110" r="1.5" fill="#161d2b"/><circle cx="990" cy="110" r="1.5" fill="#161d2b"/><circle cx="1030" cy="110" r="1.5" fill="#161d2b"/><circle cx="1070" cy="110" r="1.5" fill="#161d2b"/><circle cx="1110" cy="110" r="1.5" fill="#161d2b"/><circle cx="1150" cy="110" r="1.5" fill="#161d2b"/><circle cx="1190" cy="110" r="1.5" fill="#161d2b"/><circle cx="30" cy="150" r="1.5" fill="#161d2b"/><circle cx="70" cy="150" r="1.5" fill="#161d2b"/><circle cx="110" cy="150" r="1.5" fill="#161d2b"/><circle cx="150" cy="150" r="1.5" fill="#161d2b"/><circle cx="190" cy="150" r="1.5" fill="#161d2b"/><circle cx="230" cy="150" r="1.5" fill="#161d2b"/><circle cx="270" cy="150" r="1.5" fill="#161d2b"/><circle cx="310" cy="150" r="1.5" fill="#161d2b"/><circle cx="350" cy="150" r="1.5" fill="#161d2b"/><circle cx="390" cy="150" r="1.5" fill="#161d2b"/><circle cx="430" cy="150" r="1.5" fill="#161d2b"/><circle cx="470" cy="150" r="1.5" fill="#161d2b"/><circle cx="510" cy="150" r="1.5" fill="#161d2b"/><circle cx="550" cy="150" r="1.5" fill="#161d2b"/><circle cx="590" cy="150" r="1.5" fill="#161d2b"/><circle cx="630" cy="150" r="1.5" fill="#161d2b"/><circle cx="670" cy="150" r="1.5" fill="#161d2b"/><circle cx="710" cy="150" r="1.5" fill="#161d2b"/><circle cx="750" cy="150" r="1.5" fill="#161d2b"/><circle cx="790" cy="150" r="1.5" fill="#161d2b"/><circle cx="830" cy="150" r="1.5" fill="#161d2b"/><circle cx="870" cy="150" r="1.5" fill="#161d2b"/><circle cx="910" cy="150" r="1.5" fill="#161d2b"/><circle cx="950" cy="150" r="1.5" fill="#161d2b"/><circle cx="990" cy="150" r="1.5" fill="#161d2b"/><circle cx="1030" cy="150" r="1.5" fill="#161d2b"/><circle cx="1070" cy="150" r="1.5" fill="#161d2b"/><circle cx="1110" cy="150" r="1.5" fill="#161d2b"/><circle cx="1150" cy="150" r="1.5" fill="#161d2b"/><circle cx="1190" cy="150" r="1.5" fill="#161d2b"/><circle cx="30" cy="190" r="1.5" fill="#161d2b"/><circle cx="70" cy="190" r="1.5" fill="#161d2b"/><circle cx="110" cy="190" r="1.5" fill="#161d2b"/><circle cx="150" cy="190" r="1.5" fill="#161d2b"/><circle cx="190" cy="190" r="1.5" fill="#161d2b"/><circle cx="230" cy="190" r="1.5" fill="#161d2b"/><circle cx="270" cy="190" r="1.5" fill="#161d2b"/><circle cx="310" cy="190" r="1.5" fill="#161d2b"/><circle cx="350" cy="190" r="1.5" fill="#161d2b"/><circle cx="390" cy="190" r="1.5" fill="#161d2b"/><circle cx="430" cy="190" r="1.5" fill="#161d2b"/><circle cx="470" cy="190" r="1.5" fill="#161d2b"/><circle cx="510" cy="190" r="1.5" fill="#161d2b"/><circle cx="550" cy="190" r="1.5" fill="#161d2b"/><circle cx="590" cy="190" r="1.5" fill="#161d2b"/><circle cx="630" cy="190" r="1.5" fill="#161d2b"/><circle cx="670" cy="190" r="1.5" fill="#161d2b"/><circle cx="710" cy="190" r="1.5" fill="#161d2b"/><circle cx="750" cy="190" r="1.5" fill="#161d2b"/><circle cx="790" cy="190" r="1.5" fill="#161d2b"/><circle cx="830" cy="190" r="1.5" fill="#161d2b"/><circle cx="870" cy="190" r="1.5" fill="#161d2b"/><circle cx="910" cy="190" r="1.5" fill="#161d2b"/><circle cx="950" cy="190" r="1.5" fill="#161d2b"/><circle cx="990" cy="190" r="1.5" fill="#161d2b"/><circle cx="1030" cy="190" r="1.5" fill="#161d2b"/><circle cx="1070" cy="190" r="1.5" fill="#161d2b"/><circle cx="1110" cy="190" r="1.5" fill="#161d2b"/><circle cx="1150" cy="190" r="1.5" fill="#161d2b"/><circle cx="1190" cy="190" r="1.5" fill="#161d2b"/><circle cx="30" cy="230" r="1.5" fill="#161d2b"/><circle cx="70" cy="230" r="1.5" fill="#161d2b"/><circle cx="110" cy="230" r="1.5" fill="#161d2b"/><circle cx="150" cy="230" r="1.5" fill="#161d2b"/><circle cx="190" cy="230" r="1.5" fill="#161d2b"/><circle cx="230" cy="230" r="1.5" fill="#161d2b"/><circle cx="270" cy="230" r="1.5" fill="#161d2b"/><circle cx="310" cy="230" r="1.5" fill="#161d2b"/><circle cx="350" cy="230" r="1.5" fill="#161d2b"/><circle cx="390" cy="230" r="1.5" fill="#161d2b"/><circle cx="430" cy="230" r="1.5" fill="#161d2b"/><circle cx="470" cy="230" r="1.5" fill="#161d2b"/><circle cx="510" cy="230" r="1.5" fill="#161d2b"/><circle cx="550" cy="230" r="1.5" fill="#161d2b"/><circle cx="590" cy="230" r="1.5" fill="#161d2b"/><circle cx="630" cy="230" r="1.5" fill="#161d2b"/><circle cx="670" cy="230" r="1.5" fill="#161d2b"/><circle cx="710" cy="230" r="1.5" fill="#161d2b"/><circle cx="750" cy="230" r="1.5" fill="#161d2b"/><circle cx="790" cy="230" r="1.5" fill="#161d2b"/><circle cx="830" cy="230" r="1.5" fill="#161d2b"/><circle cx="870" cy="230" r="1.5" fill="#161d2b"/><circle cx="910" cy="230" r="1.5" fill="#161d2b"/><circle cx="950" cy="230" r="1.5" fill="#161d2b"/><circle cx="990" cy="230" r="1.5" fill="#161d2b"/><circle cx="1030" cy="230" r="1.5" fill="#161d2b"/><circle cx="1070" cy="230" r="1.5" fill="#161d2b"/><circle cx="1110" cy="230" r="1.5" fill="#161d2b"/><circle cx="1150" cy="230" r="1.5" fill="#161d2b"/><circle cx="1190" cy="230" r="1.5" fill="#161d2b"/><circle cx="30" cy="270" r="1.5" fill="#161d2b"/><circle cx="70" cy="270" r="1.5" fill="#161d2b"/><circle cx="110" cy="270" r="1.5" fill="#161d2b"/><circle cx="150" cy="270" r="1.5" fill="#161d2b"/><circle cx="190" cy="270" r="1.5" fill="#161d2b"/><circle cx="230" cy="270" r="1.5" fill="#161d2b"/><circle cx="270" cy="270" r="1.5" fill="#161d2b"/><circle cx="310" cy="270" r="1.5" fill="#161d2b"/><circle cx="350" cy="270" r="1.5" fill="#161d2b"/><circle cx="390" cy="270" r="1.5" fill="#161d2b"/><circle cx="430" cy="270" r="1.5" fill="#161d2b"/><circle cx="470" cy="270" r="1.5" fill="#161d2b"/><circle cx="510" cy="270" r="1.5" fill="#161d2b"/><circle cx="550" cy="270" r="1.5" fill="#161d2b"/><circle cx="590" cy="270" r="1.5" fill="#161d2b"/><circle cx="630" cy="270" r="1.5" fill="#161d2b"/><circle cx="670" cy="270" r="1.5" fill="#161d2b"/><circle cx="710" cy="270" r="1.5" fill="#161d2b"/><circle cx="750" cy="270" r="1.5" fill="#161d2b"/><circle cx="790" cy="270" r="1.5" fill="#161d2b"/><circle cx="830" cy="270" r="1.5" fill="#161d2b"/><circle cx="870" cy="270" r="1.5" fill="#161d2b"/><circle cx="910" cy="270" r="1.5" fill="#161d2b"/><circle cx="950" cy="270" r="1.5" fill="#161d2b"/><circle cx="990" cy="270" r="1.5" fill="#161d2b"/><circle cx="1030" cy="270" r="1.5" fill="#161d2b"/><circle cx="1070" cy="270" r="1.5" fill="#161d2b"/><circle cx="1110" cy="270" r="1.5" fill="#161d2b"/><circle cx="1150" cy="270" r="1.5" fill="#161d2b"/><circle cx="1190" cy="270" r="1.5" fill="#161d2b"/><circle cx="30" cy="310" r="1.5" fill="#161d2b"/><circle cx="70" cy="310" r="1.5" fill="#161d2b"/><circle cx="110" cy="310" r="1.5" fill="#161d2b"/><circle cx="150" cy="310" r="1.5" fill="#161d2b"/><circle cx="190" cy="310" r="1.5" fill="#161d2b"/><circle cx="230" cy="310" r="1.5" fill="#161d2b"/><circle cx="270" cy="310" r="1.5" fill="#161d2b"/><circle cx="310" cy="310" r="1.5" fill="#161d2b"/><circle cx="350" cy="310" r="1.5" fill="#161d2b"/><circle cx="390" cy="310" r="1.5" fill="#161d2b"/><circle cx="430" cy="310" r="1.5" fill="#161d2b"/><circle cx="470" cy="310" r="1.5" fill="#161d2b"/><circle cx="510" cy="310" r="1.5" fill="#161d2b"/><circle cx="550" cy="310" r="1.5" fill="#161d2b"/><circle cx="590" cy="310" r="1.5" fill="#161d2b"/><circle cx="630" cy="310" r="1.5" fill="#161d2b"/><circle cx="670" cy="310" r="1.5" fill="#161d2b"/><circle cx="710" cy="310" r="1.5" fill="#161d2b"/><circle cx="750" cy="310" r="1.5" fill="#161d2b"/><circle cx="790" cy="310" r="1.5" fill="#161d2b"/><circle cx="830" cy="310" r="1.5" fill="#161d2b"/><circle cx="870" cy="310" r="1.5" fill="#161d2b"/><circle cx="910" cy="310" r="1.5" fill="#161d2b"/><circle cx="950" cy="310" r="1.5" fill="#161d2b"/><circle cx="990" cy="310" r="1.5" fill="#161d2b"/><circle cx="1030" cy="310" r="1.5" fill="#161d2b"/><circle cx="1070" cy="310" r="1.5" fill="#161d2b"/><circle cx="1110" cy="310" r="1.5" fill="#161d2b"/><circle cx="1150" cy="310" r="1.5" fill="#161d2b"/><circle cx="1190" cy="310" r="1.5" fill="#161d2b"/><circle cx="30" cy="350" r="1.5" fill="#161d2b"/><circle cx="70" cy="350" r="1.5" fill="#161d2b"/><circle cx="110" cy="350" r="1.5" fill="#161d2b"/><circle cx="150" cy="350" r="1.5" fill="#161d2b"/><circle cx="190" cy="350" r="1.5" fill="#161d2b"/><circle cx="230" cy="350" r="1.5" fill="#161d2b"/><circle cx="270" cy="350" r="1.5" fill="#161d2b"/><circle cx="310" cy="350" r="1.5" fill="#161d2b"/><circle cx="350" cy="350" r="1.5" fill="#161d2b"/><circle cx="390" cy="350" r="1.5" fill="#161d2b"/><circle cx="430" cy="350" r="1.5" fill="#161d2b"/><circle cx="470" cy="350" r="1.5" fill="#161d2b"/><circle cx="510" cy="350" r="1.5" fill="#161d2b"/><circle cx="550" cy="350" r="1.5" fill="#161d2b"/><circle cx="590" cy="350" r="1.5" fill="#161d2b"/><circle cx="630" cy="350" r="1.5" fill="#161d2b"/><circle cx="670" cy="350" r="1.5" fill="#161d2b"/><circle cx="710" cy="350" r="1.5" fill="#161d2b"/><circle cx="750" cy="350" r="1.5" fill="#161d2b"/><circle cx="790" cy="350" r="1.5" fill="#161d2b"/><circle cx="830" cy="350" r="1.5" fill="#161d2b"/><circle cx="870" cy="350" r="1.5" fill="#161d2b"/><circle cx="910" cy="350" r="1.5" fill="#161d2b"/><circle cx="950" cy="350" r="1.5" fill="#161d2b"/><circle cx="990" cy="350" r="1.5" fill="#161d2b"/><circle cx="1030" cy="350" r="1.5" fill="#161d2b"/><circle cx="1070" cy="350" r="1.5" fill="#161d2b"/><circle cx="1110" cy="350" r="1.5" fill="#161d2b"/><circle cx="1150" cy="350" r="1.5" fill="#161d2b"/><circle cx="1190" cy="350" r="1.5" fill="#161d2b"/><circle cx="30" cy="390" r="1.5" fill="#161d2b"/><circle cx="70" cy="390" r="1.5" fill="#161d2b"/><circle cx="110" cy="390" r="1.5" fill="#161d2b"/><circle cx="150" cy="390" r="1.5" fill="#161d2b"/><circle cx="190" cy="390" r="1.5" fill="#161d2b"/><circle cx="230" cy="390" r="1.5" fill="#161d2b"/><circle cx="270" cy="390" r="1.5" fill="#161d2b"/><circle cx="310" cy="390" r="1.5" fill="#161d2b"/><circle cx="350" cy="390" r="1.5" fill="#161d2b"/><circle cx="390" cy="390" r="1.5" fill="#161d2b"/><circle cx="430" cy="390" r="1.5" fill="#161d2b"/><circle cx="470" cy="390" r="1.5" fill="#161d2b"/><circle cx="510" cy="390" r="1.5" fill="#161d2b"/><circle cx="550" cy="390" r="1.5" fill="#161d2b"/><circle cx="590" cy="390" r="1.5" fill="#161d2b"/><circle cx="630" cy="390" r="1.5" fill="#161d2b"/><circle cx="670" cy="390" r="1.5" fill="#161d2b"/><circle cx="710" cy="390" r="1.5" fill="#161d2b"/><circle cx="750" cy="390" r="1.5" fill="#161d2b"/><circle cx="790" cy="390" r="1.5" fill="#161d2b"/><circle cx="830" cy="390" r="1.5" fill="#161d2b"/><circle cx="870" cy="390" r="1.5" fill="#161d2b"/><circle cx="910" cy="390" r="1.5" fill="#161d2b"/><circle cx="950" cy="390" r="1.5" fill="#161d2b"/><circle cx="990" cy="390" r="1.5" fill="#161d2b"/><circle cx="1030" cy="390" r="1.5" fill="#161d2b"/><circle cx="1070" cy="390" r="1.5" fill="#161d2b"/><circle cx="1110" cy="390" r="1.5" fill="#161d2b"/><circle cx="1150" cy="390" r="1.5" fill="#161d2b"/><circle cx="1190" cy="390" r="1.5" fill="#161d2b"/><circle cx="30" cy="430" r="1.5" fill="#161d2b"/><circle cx="70" cy="430" r="1.5" fill="#161d2b"/><circle cx="110" cy="430" r="1.5" fill="#161d2b"/><circle cx="150" cy="430" r="1.5" fill="#161d2b"/><circle cx="190" cy="430" r="1.5" fill="#161d2b"/><circle cx="230" cy="430" r="1.5" fill="#161d2b"/><circle cx="270" cy="430" r="1.5" fill="#161d2b"/><circle cx="310" cy="430" r="1.5" fill="#161d2b"/><circle cx="350" cy="430" r="1.5" fill="#161d2b"/><circle cx="390" cy="430" r="1.5" fill="#161d2b"/><circle cx="430" cy="430" r="1.5" fill="#161d2b"/><circle cx="470" cy="430" r="1.5" fill="#161d2b"/><circle cx="510" cy="430" r="1.5" fill="#161d2b"/><circle cx="550" cy="430" r="1.5" fill="#161d2b"/><circle cx="590" cy="430" r="1.5" fill="#161d2b"/><circle cx="630" cy="430" r="1.5" fill="#161d2b"/><circle cx="670" cy="430" r="1.5" fill="#161d2b"/><circle cx="710" cy="430" r="1.5" fill="#161d2b"/><circle cx="750" cy="430" r="1.5" fill="#161d2b"/><circle cx="790" cy="430" r="1.5" fill="#161d2b"/><circle cx="830" cy="430" r="1.5" fill="#161d2b"/><circle cx="870" cy="430" r="1.5" fill="#161d2b"/><circle cx="910" cy="430" r="1.5" fill="#161d2b"/><circle cx="950" cy="430" r="1.5" fill="#161d2b"/><circle cx="990" cy="430" r="1.5" fill="#161d2b"/><circle cx="1030" cy="430" r="1.5" fill="#161d2b"/><circle cx="1070" cy="430" r="1.5" fill="#161d2b"/><circle cx="1110" cy="430" r="1.5" fill="#161d2b"/><circle cx="1150" cy="430" r="1.5" fill="#161d2b"/><circle cx="1190" cy="430" r="1.5" fill="#161d2b"/><circle cx="30" cy="470" r="1.5" fill="#161d2b"/><circle cx="70" cy="470" r="1.5" fill="#161d2b"/><circle cx="110" cy="470" r="1.5" fill="#161d2b"/><circle cx="150" cy="470" r="1.5" fill="#161d2b"/><circle cx="190" cy="470" r="1.5" fill="#161d2b"/><circle cx="230" cy="470" r="1.5" fill="#161d2b"/><circle cx="270" cy="470" r="1.5" fill="#161d2b"/><circle cx="310" cy="470" r="1.5" fill="#161d2b"/><circle cx="350" cy="470" r="1.5" fill="#161d2b"/><circle cx="390" cy="470" r="1.5" fill="#161d2b"/><circle cx="430" cy="470" r="1.5" fill="#161d2b"/><circle cx="470" cy="470" r="1.5" fill="#161d2b"/><circle cx="510" cy="470" r="1.5" fill="#161d2b"/><circle cx="550" cy="470" r="1.5" fill="#161d2b"/><circle cx="590" cy="470" r="1.5" fill="#161d2b"/><circle cx="630" cy="470" r="1.5" fill="#161d2b"/><circle cx="670" cy="470" r="1.5" fill="#161d2b"/><circle cx="710" cy="470" r="1.5" fill="#161d2b"/><circle cx="750" cy="470" r="1.5" fill="#161d2b"/><circle cx="790" cy="470" r="1.5" fill="#161d2b"/><circle cx="830" cy="470" r="1.5" fill="#161d2b"/><circle cx="870" cy="470" r="1.5" fill="#161d2b"/><circle cx="910" cy="470" r="1.5" fill="#161d2b"/><circle cx="950" cy="470" r="1.5" fill="#161d2b"/><circle cx="990" cy="470" r="1.5" fill="#161d2b"/><circle cx="1030" cy="470" r="1.5" fill="#161d2b"/><circle cx="1070" cy="470" r="1.5" fill="#161d2b"/><circle cx="1110" cy="470" r="1.5" fill="#161d2b"/><circle cx="1150" cy="470" r="1.5" fill="#161d2b"/><circle cx="1190" cy="470" r="1.5" fill="#161d2b"/><circle cx="30" cy="510" r="1.5" fill="#161d2b"/><circle cx="70" cy="510" r="1.5" fill="#161d2b"/><circle cx="110" cy="510" r="1.5" fill="#161d2b"/><circle cx="150" cy="510" r="1.5" fill="#161d2b"/><circle cx="190" cy="510" r="1.5" fill="#161d2b"/><circle cx="230" cy="510" r="1.5" fill="#161d2b"/><circle cx="270" cy="510" r="1.5" fill="#161d2b"/><circle cx="310" cy="510" r="1.5" fill="#161d2b"/><circle cx="350" cy="510" r="1.5" fill="#161d2b"/><circle cx="390" cy="510" r="1.5" fill="#161d2b"/><circle cx="430" cy="510" r="1.5" fill="#161d2b"/><circle cx="470" cy="510" r="1.5" fill="#161d2b"/><circle cx="510" cy="510" r="1.5" fill="#161d2b"/><circle cx="550" cy="510" r="1.5" fill="#161d2b"/><circle cx="590" cy="510" r="1.5" fill="#161d2b"/><circle cx="630" cy="510" r="1.5" fill="#161d2b"/><circle cx="670" cy="510" r="1.5" fill="#161d2b"/><circle cx="710" cy="510" r="1.5" fill="#161d2b"/><circle cx="750" cy="510" r="1.5" fill="#161d2b"/><circle cx="790" cy="510" r="1.5" fill="#161d2b"/><circle cx="830" cy="510" r="1.5" fill="#161d2b"/><circle cx="870" cy="510" r="1.5" fill="#161d2b"/><circle cx="910" cy="510" r="1.5" fill="#161d2b"/><circle cx="950" cy="510" r="1.5" fill="#161d2b"/><circle cx="990" cy="510" r="1.5" fill="#161d2b"/><circle cx="1030" cy="510" r="1.5" fill="#161d2b"/><circle cx="1070" cy="510" r="1.5" fill="#161d2b"/><circle cx="1110" cy="510" r="1.5" fill="#161d2b"/><circle cx="1150" cy="510" r="1.5" fill="#161d2b"/><circle cx="1190" cy="510" r="1.5" fill="#161d2b"/><circle cx="30" cy="550" r="1.5" fill="#161d2b"/><circle cx="70" cy="550" r="1.5" fill="#161d2b"/><circle cx="110" cy="550" r="1.5" fill="#161d2b"/><circle cx="150" cy="550" r="1.5" fill="#161d2b"/><circle cx="190" cy="550" r="1.5" fill="#161d2b"/><circle cx="230" cy="550" r="1.5" fill="#161d2b"/><circle cx="270" cy="550" r="1.5" fill="#161d2b"/><circle cx="310" cy="550" r="1.5" fill="#161d2b"/><circle cx="350" cy="550" r="1.5" fill="#161d2b"/><circle cx="390" cy="550" r="1.5" fill="#161d2b"/><circle cx="430" cy="550" r="1.5" fill="#161d2b"/><circle cx="470" cy="550" r="1.5" fill="#161d2b"/><circle cx="510" cy="550" r="1.5" fill="#161d2b"/><circle cx="550" cy="550" r="1.5" fill="#161d2b"/><circle cx="590" cy="550" r="1.5" fill="#161d2b"/><circle cx="630" cy="550" r="1.5" fill="#161d2b"/><circle cx="670" cy="550" r="1.5" fill="#161d2b"/><circle cx="710" cy="550" r="1.5" fill="#161d2b"/><circle cx="750" cy="550" r="1.5" fill="#161d2b"/><circle cx="790" cy="550" r="1.5" fill="#161d2b"/><circle cx="830" cy="550" r="1.5" fill="#161d2b"/><circle cx="870" cy="550" r="1.5" fill="#161d2b"/><circle cx="910" cy="550" r="1.5" fill="#161d2b"/><circle cx="950" cy="550" r="1.5" fill="#161d2b"/><circle cx="990" cy="550" r="1.5" fill="#161d2b"/><circle cx="1030" cy="550" r="1.5" fill="#161d2b"/><circle cx="1070" cy="550" r="1.5" fill="#161d2b"/><circle cx="1110" cy="550" r="1.5" fill="#161d2b"/><circle cx="1150" cy="550" r="1.5" fill="#161d2b"/><circle cx="1190" cy="550" r="1.5" fill="#161d2b"/><circle cx="30" cy="590" r="1.5" fill="#161d2b"/><circle cx="70" cy="590" r="1.5" fill="#161d2b"/><circle cx="110" cy="590" r="1.5" fill="#161d2b"/><circle cx="150" cy="590" r="1.5" fill="#161d2b"/><circle cx="190" cy="590" r="1.5" fill="#161d2b"/><circle cx="230" cy="590" r="1.5" fill="#161d2b"/><circle cx="270" cy="590" r="1.5" fill="#161d2b"/><circle cx="310" cy="590" r="1.5" fill="#161d2b"/><circle cx="350" cy="590" r="1.5" fill="#161d2b"/><circle cx="390" cy="590" r="1.5" fill="#161d2b"/><circle cx="430" cy="590" r="1.5" fill="#161d2b"/><circle cx="470" cy="590" r="1.5" fill="#161d2b"/><circle cx="510" cy="590" r="1.5" fill="#161d2b"/><circle cx="550" cy="590" r="1.5" fill="#161d2b"/><circle cx="590" cy="590" r="1.5" fill="#161d2b"/><circle cx="630" cy="590" r="1.5" fill="#161d2b"/><circle cx="670" cy="590" r="1.5" fill="#161d2b"/><circle cx="710" cy="590" r="1.5" fill="#161d2b"/><circle cx="750" cy="590" r="1.5" fill="#161d2b"/><circle cx="790" cy="590" r="1.5" fill="#161d2b"/><circle cx="830" cy="590" r="1.5" fill="#161d2b"/><circle cx="870" cy="590" r="1.5" fill="#161d2b"/><circle cx="910" cy="590" r="1.5" fill="#161d2b"/><circle cx="950" cy="590" r="1.5" fill="#161d2b"/><circle cx="990" cy="590" r="1.5" fill="#161d2b"/><circle cx="1030" cy="590" r="1.5" fill="#161d2b"/><circle cx="1070" cy="590" r="1.5" fill="#161d2b"/><circle cx="1110" cy="590" r="1.5" fill="#161d2b"/><circle cx="1150" cy="590" r="1.5" fill="#161d2b"/><circle cx="1190" cy="590" r="1.5" fill="#161d2b"/><circle cx="30" cy="630" r="1.5" fill="#161d2b"/><circle cx="70" cy="630" r="1.5" fill="#161d2b"/><circle cx="110" cy="630" r="1.5" fill="#161d2b"/><circle cx="150" cy="630" r="1.5" fill="#161d2b"/><circle cx="190" cy="630" r="1.5" fill="#161d2b"/><circle cx="230" cy="630" r="1.5" fill="#161d2b"/><circle cx="270" cy="630" r="1.5" fill="#161d2b"/><circle cx="310" cy="630" r="1.5" fill="#161d2b"/><circle cx="350" cy="630" r="1.5" fill="#161d2b"/><circle cx="390" cy="630" r="1.5" fill="#161d2b"/><circle cx="430" cy="630" r="1.5" fill="#161d2b"/><circle cx="470" cy="630" r="1.5" fill="#161d2b"/><circle cx="510" cy="630" r="1.5" fill="#161d2b"/><circle cx="550" cy="630" r="1.5" fill="#161d2b"/><circle cx="590" cy="630" r="1.5" fill="#161d2b"/><circle cx="630" cy="630" r="1.5" fill="#161d2b"/><circle cx="670" cy="630" r="1.5" fill="#161d2b"/><circle cx="710" cy="630" r="1.5" fill="#161d2b"/><circle cx="750" cy="630" r="1.5" fill="#161d2b"/><circle cx="790" cy="630" r="1.5" fill="#161d2b"/><circle cx="830" cy="630" r="1.5" fill="#161d2b"/><circle cx="870" cy="630" r="1.5" fill="#161d2b"/><circle cx="910" cy="630" r="1.5" fill="#161d2b"/><circle cx="950" cy="630" r="1.5" fill="#161d2b"/><circle cx="990" cy="630" r="1.5" fill="#161d2b"/><circle cx="1030" cy="630" r="1.5" fill="#161d2b"/><circle cx="1070" cy="630" r="1.5" fill="#161d2b"/><circle cx="1110" cy="630" r="1.5" fill="#161d2b"/><circle cx="1150" cy="630" r="1.5" fill="#161d2b"/><circle cx="1190" cy="630" r="1.5" fill="#161d2b"/><circle cx="30" cy="670" r="1.5" fill="#161d2b"/><circle cx="70" cy="670" r="1.5" fill="#161d2b"/><circle cx="110" cy="670" r="1.5" fill="#161d2b"/><circle cx="150" cy="670" r="1.5" fill="#161d2b"/><circle cx="190" cy="670" r="1.5" fill="#161d2b"/><circle cx="230" cy="670" r="1.5" fill="#161d2b"/><circle cx="270" cy="670" r="1.5" fill="#161d2b"/><circle cx="310" cy="670" r="1.5" fill="#161d2b"/><circle cx="350" cy="670" r="1.5" fill="#161d2b"/><circle cx="390" cy="670" r="1.5" fill="#161d2b"/><circle cx="430" cy="670" r="1.5" fill="#161d2b"/><circle cx="470" cy="670" r="1.5" fill="#161d2b"/><circle cx="510" cy="670" r="1.5" fill="#161d2b"/><circle cx="550" cy="670" r="1.5" fill="#161d2b"/><circle cx="590" cy="670" r="1.5" fill="#161d2b"/><circle cx="630" cy="670" r="1.5" fill="#161d2b"/><circle cx="670" cy="670" r="1.5" fill="#161d2b"/><circle cx="710" cy="670" r="1.5" fill="#161d2b"/><circle cx="750" cy="670" r="1.5" fill="#161d2b"/><circle cx="790" cy="670" r="1.5" fill="#161d2b"/><circle cx="830" cy="670" r="1.5" fill="#161d2b"/><circle cx="870" cy="670" r="1.5" fill="#161d2b"/><circle cx="910" cy="670" r="1.5" fill="#161d2b"/><circle cx="950" cy="670" r="1.5" fill="#161d2b"/><circle cx="990" cy="670" r="1.5" fill="#161d2b"/><circle cx="1030" cy="670" r="1.5" fill="#161d2b"/><circle cx="1070" cy="670" r="1.5" fill="#161d2b"/><circle cx="1110" cy="670" r="1.5" fill="#161d2b"/><circle cx="1150" cy="670" r="1.5" fill="#161d2b"/><circle cx="1190" cy="670" r="1.5" fill="#161d2b"/><circle cx="30" cy="710" r="1.5" fill="#161d2b"/><circle cx="70" cy="710" r="1.5" fill="#161d2b"/><circle cx="110" cy="710" r="1.5" fill="#161d2b"/><circle cx="150" cy="710" r="1.5" fill="#161d2b"/><circle cx="190" cy="710" r="1.5" fill="#161d2b"/><circle cx="230" cy="710" r="1.5" fill="#161d2b"/><circle cx="270" cy="710" r="1.5" fill="#161d2b"/><circle cx="310" cy="710" r="1.5" fill="#161d2b"/><circle cx="350" cy="710" r="1.5" fill="#161d2b"/><circle cx="390" cy="710" r="1.5" fill="#161d2b"/><circle cx="430" cy="710" r="1.5" fill="#161d2b"/><circle cx="470" cy="710" r="1.5" fill="#161d2b"/><circle cx="510" cy="710" r="1.5" fill="#161d2b"/><circle cx="550" cy="710" r="1.5" fill="#161d2b"/><circle cx="590" cy="710" r="1.5" fill="#161d2b"/><circle cx="630" cy="710" r="1.5" fill="#161d2b"/><circle cx="670" cy="710" r="1.5" fill="#161d2b"/><circle cx="710" cy="710" r="1.5" fill="#161d2b"/><circle cx="750" cy="710" r="1.5" fill="#161d2b"/><circle cx="790" cy="710" r="1.5" fill="#161d2b"/><circle cx="830" cy="710" r="1.5" fill="#161d2b"/><circle cx="870" cy="710" r="1.5" fill="#161d2b"/><circle cx="910" cy="710" r="1.5" fill="#161d2b"/><circle cx="950" cy="710" r="1.5" fill="#161d2b"/><circle cx="990" cy="710" r="1.5" fill="#161d2b"/><circle cx="1030" cy="710" r="1.5" fill="#161d2b"/><circle cx="1070" cy="710" r="1.5" fill="#161d2b"/><circle cx="1110" cy="710" r="1.5" fill="#161d2b"/><circle cx="1150" cy="710" r="1.5" fill="#161d2b"/><circle cx="1190" cy="710" r="1.5" fill="#161d2b"/><circle cx="30" cy="750" r="1.5" fill="#161d2b"/><circle cx="70" cy="750" r="1.5" fill="#161d2b"/><circle cx="110" cy="750" r="1.5" fill="#161d2b"/><circle cx="150" cy="750" r="1.5" fill="#161d2b"/><circle cx="190" cy="750" r="1.5" fill="#161d2b"/><circle cx="230" cy="750" r="1.5" fill="#161d2b"/><circle cx="270" cy="750" r="1.5" fill="#161d2b"/><circle cx="310" cy="750" r="1.5" fill="#161d2b"/><circle cx="350" cy="750" r="1.5" fill="#161d2b"/><circle cx="390" cy="750" r="1.5" fill="#161d2b"/><circle cx="430" cy="750" r="1.5" fill="#161d2b"/><circle cx="470" cy="750" r="1.5" fill="#161d2b"/><circle cx="510" cy="750" r="1.5" fill="#161d2b"/><circle cx="550" cy="750" r="1.5" fill="#161d2b"/><circle cx="590" cy="750" r="1.5" fill="#161d2b"/><circle cx="630" cy="750" r="1.5" fill="#161d2b"/><circle cx="670" cy="750" r="1.5" fill="#161d2b"/><circle cx="710" cy="750" r="1.5" fill="#161d2b"/><circle cx="750" cy="750" r="1.5" fill="#161d2b"/><circle cx="790" cy="750" r="1.5" fill="#161d2b"/><circle cx="830" cy="750" r="1.5" fill="#161d2b"/><circle cx="870" cy="750" r="1.5" fill="#161d2b"/><circle cx="910" cy="750" r="1.5" fill="#161d2b"/><circle cx="950" cy="750" r="1.5" fill="#161d2b"/><circle cx="990" cy="750" r="1.5" fill="#161d2b"/><circle cx="1030" cy="750" r="1.5" fill="#161d2b"/><circle cx="1070" cy="750" r="1.5" fill="#161d2b"/><circle cx="1110" cy="750" r="1.5" fill="#161d2b"/><circle cx="1150" cy="750" r="1.5" fill="#161d2b"/><circle cx="1190" cy="750" r="1.5" fill="#161d2b"/><circle cx="30" cy="790" r="1.5" fill="#161d2b"/><circle cx="70" cy="790" r="1.5" fill="#161d2b"/><circle cx="110" cy="790" r="1.5" fill="#161d2b"/><circle cx="150" cy="790" r="1.5" fill="#161d2b"/><circle cx="190" cy="790" r="1.5" fill="#161d2b"/><circle cx="230" cy="790" r="1.5" fill="#161d2b"/><circle cx="270" cy="790" r="1.5" fill="#161d2b"/><circle cx="310" cy="790" r="1.5" fill="#161d2b"/><circle cx="350" cy="790" r="1.5" fill="#161d2b"/><circle cx="390" cy="790" r="1.5" fill="#161d2b"/><circle cx="430" cy="790" r="1.5" fill="#161d2b"/><circle cx="470" cy="790" r="1.5" fill="#161d2b"/><circle cx="510" cy="790" r="1.5" fill="#161d2b"/><circle cx="550" cy="790" r="1.5" fill="#161d2b"/><circle cx="590" cy="790" r="1.5" fill="#161d2b"/><circle cx="630" cy="790" r="1.5" fill="#161d2b"/><circle cx="670" cy="790" r="1.5" fill="#161d2b"/><circle cx="710" cy="790" r="1.5" fill="#161d2b"/><circle cx="750" cy="790" r="1.5" fill="#161d2b"/><circle cx="790" cy="790" r="1.5" fill="#161d2b"/><circle cx="830" cy="790" r="1.5" fill="#161d2b"/><circle cx="870" cy="790" r="1.5" fill="#161d2b"/><circle cx="910" cy="790" r="1.5" fill="#161d2b"/><circle cx="950" cy="790" r="1.5" fill="#161d2b"/><circle cx="990" cy="790" r="1.5" fill="#161d2b"/><circle cx="1030" cy="790" r="1.5" fill="#161d2b"/><circle cx="1070" cy="790" r="1.5" fill="#161d2b"/><circle cx="1110" cy="790" r="1.5" fill="#161d2b"/><circle cx="1150" cy="790" r="1.5" fill="#161d2b"/><circle cx="1190" cy="790" r="1.5" fill="#161d2b"/><circle cx="30" cy="830" r="1.5" fill="#161d2b"/><circle cx="70" cy="830" r="1.5" fill="#161d2b"/><circle cx="110" cy="830" r="1.5" fill="#161d2b"/><circle cx="150" cy="830" r="1.5" fill="#161d2b"/><circle cx="190" cy="830" r="1.5" fill="#161d2b"/><circle cx="230" cy="830" r="1.5" fill="#161d2b"/><circle cx="270" cy="830" r="1.5" fill="#161d2b"/><circle cx="310" cy="830" r="1.5" fill="#161d2b"/><circle cx="350" cy="830" r="1.5" fill="#161d2b"/><circle cx="390" cy="830" r="1.5" fill="#161d2b"/><circle cx="430" cy="830" r="1.5" fill="#161d2b"/><circle cx="470" cy="830" r="1.5" fill="#161d2b"/><circle cx="510" cy="830" r="1.5" fill="#161d2b"/><circle cx="550" cy="830" r="1.5" fill="#161d2b"/><circle cx="590" cy="830" r="1.5" fill="#161d2b"/><circle cx="630" cy="830" r="1.5" fill="#161d2b"/><circle cx="670" cy="830" r="1.5" fill="#161d2b"/><circle cx="710" cy="830" r="1.5" fill="#161d2b"/><circle cx="750" cy="830" r="1.5" fill="#161d2b"/><circle cx="790" cy="830" r="1.5" fill="#161d2b"/><circle cx="830" cy="830" r="1.5" fill="#161d2b"/><circle cx="870" cy="830" r="1.5" fill="#161d2b"/><circle cx="910" cy="830" r="1.5" fill="#161d2b"/><circle cx="950" cy="830" r="1.5" fill="#161d2b"/><circle cx="990" cy="830" r="1.5" fill="#161d2b"/><circle cx="1030" cy="830" r="1.5" fill="#161d2b"/><circle cx="1070" cy="830" r="1.5" fill="#161d2b"/><circle cx="1110" cy="830" r="1.5" fill="#161d2b"/><circle cx="1150" cy="830" r="1.5" fill="#161d2b"/><circle cx="1190" cy="830" r="1.5" fill="#161d2b"/><circle cx="30" cy="870" r="1.5" fill="#161d2b"/><circle cx="70" cy="870" r="1.5" fill="#161d2b"/><circle cx="110" cy="870" r="1.5" fill="#161d2b"/><circle cx="150" cy="870" r="1.5" fill="#161d2b"/><circle cx="190" cy="870" r="1.5" fill="#161d2b"/><circle cx="230" cy="870" r="1.5" fill="#161d2b"/><circle cx="270" cy="870" r="1.5" fill="#161d2b"/><circle cx="310" cy="870" r="1.5" fill="#161d2b"/><circle cx="350" cy="870" r="1.5" fill="#161d2b"/><circle cx="390" cy="870" r="1.5" fill="#161d2b"/><circle cx="430" cy="870" r="1.5" fill="#161d2b"/><circle cx="470" cy="870" r="1.5" fill="#161d2b"/><circle cx="510" cy="870" r="1.5" fill="#161d2b"/><circle cx="550" cy="870" r="1.5" fill="#161d2b"/><circle cx="590" cy="870" r="1.5" fill="#161d2b"/><circle cx="630" cy="870" r="1.5" fill="#161d2b"/><circle cx="670" cy="870" r="1.5" fill="#161d2b"/><circle cx="710" cy="870" r="1.5" fill="#161d2b"/><circle cx="750" cy="870" r="1.5" fill="#161d2b"/><circle cx="790" cy="870" r="1.5" fill="#161d2b"/><circle cx="830" cy="870" r="1.5" fill="#161d2b"/><circle cx="870" cy="870" r="1.5" fill="#161d2b"/><circle cx="910" cy="870" r="1.5" fill="#161d2b"/><circle cx="950" cy="870" r="1.5" fill="#161d2b"/><circle cx="990" cy="870" r="1.5" fill="#161d2b"/><circle cx="1030" cy="870" r="1.5" fill="#161d2b"/><circle cx="1070" cy="870" r="1.5" fill="#161d2b"/><circle cx="1110" cy="870" r="1.5" fill="#161d2b"/><circle cx="1150" cy="870" r="1.5" fill="#161d2b"/><circle cx="1190" cy="870" r="1.5" fill="#161d2b"/><circle cx="30" cy="910" r="1.5" fill="#161d2b"/><circle cx="70" cy="910" r="1.5" fill="#161d2b"/><circle cx="110" cy="910" r="1.5" fill="#161d2b"/><circle cx="150" cy="910" r="1.5" fill="#161d2b"/><circle cx="190" cy="910" r="1.5" fill="#161d2b"/><circle cx="230" cy="910" r="1.5" fill="#161d2b"/><circle cx="270" cy="910" r="1.5" fill="#161d2b"/><circle cx="310" cy="910" r="1.5" fill="#161d2b"/><circle cx="350" cy="910" r="1.5" fill="#161d2b"/><circle cx="390" cy="910" r="1.5" fill="#161d2b"/><circle cx="430" cy="910" r="1.5" fill="#161d2b"/><circle cx="470" cy="910" r="1.5" fill="#161d2b"/><circle cx="510" cy="910" r="1.5" fill="#161d2b"/><circle cx="550" cy="910" r="1.5" fill="#161d2b"/><circle cx="590" cy="910" r="1.5" fill="#161d2b"/><circle cx="630" cy="910" r="1.5" fill="#161d2b"/><circle cx="670" cy="910" r="1.5" fill="#161d2b"/><circle cx="710" cy="910" r="1.5" fill="#161d2b"/><circle cx="750" cy="910" r="1.5" fill="#161d2b"/><circle cx="790" cy="910" r="1.5" fill="#161d2b"/><circle cx="830" cy="910" r="1.5" fill="#161d2b"/><circle cx="870" cy="910" r="1.5" fill="#161d2b"/><circle cx="910" cy="910" r="1.5" fill="#161d2b"/><circle cx="950" cy="910" r="1.5" fill="#161d2b"/><circle cx="990" cy="910" r="1.5" fill="#161d2b"/><circle cx="1030" cy="910" r="1.5" fill="#161d2b"/><circle cx="1070" cy="910" r="1.5" fill="#161d2b"/><circle cx="1110" cy="910" r="1.5" fill="#161d2b"/><circle cx="1150" cy="910" r="1.5" fill="#161d2b"/><circle cx="1190" cy="910" r="1.5" fill="#161d2b"/><circle cx="30" cy="950" r="1.5" fill="#161d2b"/><circle cx="70" cy="950" r="1.5" fill="#161d2b"/><circle cx="110" cy="950" r="1.5" fill="#161d2b"/><circle cx="150" cy="950" r="1.5" fill="#161d2b"/><circle cx="190" cy="950" r="1.5" fill="#161d2b"/><circle cx="230" cy="950" r="1.5" fill="#161d2b"/><circle cx="270" cy="950" r="1.5" fill="#161d2b"/><circle cx="310" cy="950" r="1.5" fill="#161d2b"/><circle cx="350" cy="950" r="1.5" fill="#161d2b"/><circle cx="390" cy="950" r="1.5" fill="#161d2b"/><circle cx="430" cy="950" r="1.5" fill="#161d2b"/><circle cx="470" cy="950" r="1.5" fill="#161d2b"/><circle cx="510" cy="950" r="1.5" fill="#161d2b"/><circle cx="550" cy="950" r="1.5" fill="#161d2b"/><circle cx="590" cy="950" r="1.5" fill="#161d2b"/><circle cx="630" cy="950" r="1.5" fill="#161d2b"/><circle cx="670" cy="950" r="1.5" fill="#161d2b"/><circle cx="710" cy="950" r="1.5" fill="#161d2b"/><circle cx="750" cy="950" r="1.5" fill="#161d2b"/><circle cx="790" cy="950" r="1.5" fill="#161d2b"/><circle cx="830" cy="950" r="1.5" fill="#161d2b"/><circle cx="870" cy="950" r="1.5" fill="#161d2b"/><circle cx="910" cy="950" r="1.5" fill="#161d2b"/><circle cx="950" cy="950" r="1.5" fill="#161d2b"/><circle cx="990" cy="950" r="1.5" fill="#161d2b"/><circle cx="1030" cy="950" r="1.5" fill="#161d2b"/><circle cx="1070" cy="950" r="1.5" fill="#161d2b"/><circle cx="1110" cy="950" r="1.5" fill="#161d2b"/><circle cx="1150" cy="950" r="1.5" fill="#161d2b"/><circle cx="1190" cy="950" r="1.5" fill="#161d2b"/><circle cx="30" cy="990" r="1.5" fill="#161d2b"/><circle cx="70" cy="990" r="1.5" fill="#161d2b"/><circle cx="110" cy="990" r="1.5" fill="#161d2b"/><circle cx="150" cy="990" r="1.5" fill="#161d2b"/><circle cx="190" cy="990" r="1.5" fill="#161d2b"/><circle cx="230" cy="990" r="1.5" fill="#161d2b"/><circle cx="270" cy="990" r="1.5" fill="#161d2b"/><circle cx="310" cy="990" r="1.5" fill="#161d2b"/><circle cx="350" cy="990" r="1.5" fill="#161d2b"/><circle cx="390" cy="990" r="1.5" fill="#161d2b"/><circle cx="430" cy="990" r="1.5" fill="#161d2b"/><circle cx="470" cy="990" r="1.5" fill="#161d2b"/><circle cx="510" cy="990" r="1.5" fill="#161d2b"/><circle cx="550" cy="990" r="1.5" fill="#161d2b"/><circle cx="590" cy="990" r="1.5" fill="#161d2b"/><circle cx="630" cy="990" r="1.5" fill="#161d2b"/><circle cx="670" cy="990" r="1.5" fill="#161d2b"/><circle cx="710" cy="990" r="1.5" fill="#161d2b"/><circle cx="750" cy="990" r="1.5" fill="#161d2b"/><circle cx="790" cy="990" r="1.5" fill="#161d2b"/><circle cx="830" cy="990" r="1.5" fill="#161d2b"/><circle cx="870" cy="990" r="1.5" fill="#161d2b"/><circle cx="910" cy="990" r="1.5" fill="#161d2b"/><circle cx="950" cy="990" r="1.5" fill="#161d2b"/><circle cx="990" cy="990" r="1.5" fill="#161d2b"/><circle cx="1030" cy="990" r="1.5" fill="#161d2b"/><circle cx="1070" cy="990" r="1.5" fill="#161d2b"/><circle cx="1110" cy="990" r="1.5" fill="#161d2b"/><circle cx="1150" cy="990" r="1.5" fill="#161d2b"/><circle cx="1190" cy="990" r="1.5" fill="#161d2b"/><circle cx="30" cy="1030" r="1.5" fill="#161d2b"/><circle cx="70" cy="1030" r="1.5" fill="#161d2b"/><circle cx="110" cy="1030" r="1.5" fill="#161d2b"/><circle cx="150" cy="1030" r="1.5" fill="#161d2b"/><circle cx="190" cy="1030" r="1.5" fill="#161d2b"/><circle cx="230" cy="1030" r="1.5" fill="#161d2b"/><circle cx="270" cy="1030" r="1.5" fill="#161d2b"/><circle cx="310" cy="1030" r="1.5" fill="#161d2b"/><circle cx="350" cy="1030" r="1.5" fill="#161d2b"/><circle cx="390" cy="1030" r="1.5" fill="#161d2b"/><circle cx="430" cy="1030" r="1.5" fill="#161d2b"/><circle cx="470" cy="1030" r="1.5" fill="#161d2b"/><circle cx="510" cy="1030" r="1.5" fill="#161d2b"/><circle cx="550" cy="1030" r="1.5" fill="#161d2b"/><circle cx="590" cy="1030" r="1.5" fill="#161d2b"/><circle cx="630" cy="1030" r="1.5" fill="#161d2b"/><circle cx="670" cy="1030" r="1.5" fill="#161d2b"/><circle cx="710" cy="1030" r="1.5" fill="#161d2b"/><circle cx="750" cy="1030" r="1.5" fill="#161d2b"/><circle cx="790" cy="1030" r="1.5" fill="#161d2b"/><circle cx="830" cy="1030" r="1.5" fill="#161d2b"/><circle cx="870" cy="1030" r="1.5" fill="#161d2b"/><circle cx="910" cy="1030" r="1.5" fill="#161d2b"/><circle cx="950" cy="1030" r="1.5" fill="#161d2b"/><circle cx="990" cy="1030" r="1.5" fill="#161d2b"/><circle cx="1030" cy="1030" r="1.5" fill="#161d2b"/><circle cx="1070" cy="1030" r="1.5" fill="#161d2b"/><circle cx="1110" cy="1030" r="1.5" fill="#161d2b"/><circle cx="1150" cy="1030" r="1.5" fill="#161d2b"/><circle cx="1190" cy="1030" r="1.5" fill="#161d2b"/><circle cx="30" cy="1070" r="1.5" fill="#161d2b"/><circle cx="70" cy="1070" r="1.5" fill="#161d2b"/><circle cx="110" cy="1070" r="1.5" fill="#161d2b"/><circle cx="150" cy="1070" r="1.5" fill="#161d2b"/><circle cx="190" cy="1070" r="1.5" fill="#161d2b"/><circle cx="230" cy="1070" r="1.5" fill="#161d2b"/><circle cx="270" cy="1070" r="1.5" fill="#161d2b"/><circle cx="310" cy="1070" r="1.5" fill="#161d2b"/><circle cx="350" cy="1070" r="1.5" fill="#161d2b"/><circle cx="390" cy="1070" r="1.5" fill="#161d2b"/><circle cx="430" cy="1070" r="1.5" fill="#161d2b"/><circle cx="470" cy="1070" r="1.5" fill="#161d2b"/><circle cx="510" cy="1070" r="1.5" fill="#161d2b"/><circle cx="550" cy="1070" r="1.5" fill="#161d2b"/><circle cx="590" cy="1070" r="1.5" fill="#161d2b"/><circle cx="630" cy="1070" r="1.5" fill="#161d2b"/><circle cx="670" cy="1070" r="1.5" fill="#161d2b"/><circle cx="710" cy="1070" r="1.5" fill="#161d2b"/><circle cx="750" cy="1070" r="1.5" fill="#161d2b"/><circle cx="790" cy="1070" r="1.5" fill="#161d2b"/><circle cx="830" cy="1070" r="1.5" fill="#161d2b"/><circle cx="870" cy="1070" r="1.5" fill="#161d2b"/><circle cx="910" cy="1070" r="1.5" fill="#161d2b"/><circle cx="950" cy="1070" r="1.5" fill="#161d2b"/><circle cx="990" cy="1070" r="1.5" fill="#161d2b"/><circle cx="1030" cy="1070" r="1.5" fill="#161d2b"/><circle cx="1070" cy="1070" r="1.5" fill="#161d2b"/><circle cx="1110" cy="1070" r="1.5" fill="#161d2b"/><circle cx="1150" cy="1070" r="1.5" fill="#161d2b"/><circle cx="1190" cy="1070" r="1.5" fill="#161d2b"/><circle cx="30" cy="1110" r="1.5" fill="#161d2b"/><circle cx="70" cy="1110" r="1.5" fill="#161d2b"/><circle cx="110" cy="1110" r="1.5" fill="#161d2b"/><circle cx="150" cy="1110" r="1.5" fill="#161d2b"/><circle cx="190" cy="1110" r="1.5" fill="#161d2b"/><circle cx="230" cy="1110" r="1.5" fill="#161d2b"/><circle cx="270" cy="1110" r="1.5" fill="#161d2b"/><circle cx="310" cy="1110" r="1.5" fill="#161d2b"/><circle cx="350" cy="1110" r="1.5" fill="#161d2b"/><circle cx="390" cy="1110" r="1.5" fill="#161d2b"/><circle cx="430" cy="1110" r="1.5" fill="#161d2b"/><circle cx="470" cy="1110" r="1.5" fill="#161d2b"/><circle cx="510" cy="1110" r="1.5" fill="#161d2b"/><circle cx="550" cy="1110" r="1.5" fill="#161d2b"/><circle cx="590" cy="1110" r="1.5" fill="#161d2b"/><circle cx="630" cy="1110" r="1.5" fill="#161d2b"/><circle cx="670" cy="1110" r="1.5" fill="#161d2b"/><circle cx="710" cy="1110" r="1.5" fill="#161d2b"/><circle cx="750" cy="1110" r="1.5" fill="#161d2b"/><circle cx="790" cy="1110" r="1.5" fill="#161d2b"/><circle cx="830" cy="1110" r="1.5" fill="#161d2b"/><circle cx="870" cy="1110" r="1.5" fill="#161d2b"/><circle cx="910" cy="1110" r="1.5" fill="#161d2b"/><circle cx="950" cy="1110" r="1.5" fill="#161d2b"/><circle cx="990" cy="1110" r="1.5" fill="#161d2b"/><circle cx="1030" cy="1110" r="1.5" fill="#161d2b"/><circle cx="1070" cy="1110" r="1.5" fill="#161d2b"/><circle cx="1110" cy="1110" r="1.5" fill="#161d2b"/><circle cx="1150" cy="1110" r="1.5" fill="#161d2b"/><circle cx="1190" cy="1110" r="1.5" fill="#161d2b"/><circle cx="30" cy="1150" r="1.5" fill="#161d2b"/><circle cx="70" cy="1150" r="1.5" fill="#161d2b"/><circle cx="110" cy="1150" r="1.5" fill="#161d2b"/><circle cx="150" cy="1150" r="1.5" fill="#161d2b"/><circle cx="190" cy="1150" r="1.5" fill="#161d2b"/><circle cx="230" cy="1150" r="1.5" fill="#161d2b"/><circle cx="270" cy="1150" r="1.5" fill="#161d2b"/><circle cx="310" cy="1150" r="1.5" fill="#161d2b"/><circle cx="350" cy="1150" r="1.5" fill="#161d2b"/><circle cx="390" cy="1150" r="1.5" fill="#161d2b"/><circle cx="430" cy="1150" r="1.5" fill="#161d2b"/><circle cx="470" cy="1150" r="1.5" fill="#161d2b"/><circle cx="510" cy="1150" r="1.5" fill="#161d2b"/><circle cx="550" cy="1150" r="1.5" fill="#161d2b"/><circle cx="590" cy="1150" r="1.5" fill="#161d2b"/><circle cx="630" cy="1150" r="1.5" fill="#161d2b"/><circle cx="670" cy="1150" r="1.5" fill="#161d2b"/><circle cx="710" cy="1150" r="1.5" fill="#161d2b"/><circle cx="750" cy="1150" r="1.5" fill="#161d2b"/><circle cx="790" cy="1150" r="1.5" fill="#161d2b"/><circle cx="830" cy="1150" r="1.5" fill="#161d2b"/><circle cx="870" cy="1150" r="1.5" fill="#161d2b"/><circle cx="910" cy="1150" r="1.5" fill="#161d2b"/><circle cx="950" cy="1150" r="1.5" fill="#161d2b"/><circle cx="990" cy="1150" r="1.5" fill="#161d2b"/><circle cx="1030" cy="1150" r="1.5" fill="#161d2b"/><circle cx="1070" cy="1150" r="1.5" fill="#161d2b"/><circle cx="1110" cy="1150" r="1.5" fill="#161d2b"/><circle cx="1150" cy="1150" r="1.5" fill="#161d2b"/><circle cx="1190" cy="1150" r="1.5" fill="#161d2b"/><circle cx="30" cy="1190" r="1.5" fill="#161d2b"/><circle cx="70" cy="1190" r="1.5" fill="#161d2b"/><circle cx="110" cy="1190" r="1.5" fill="#161d2b"/><circle cx="150" cy="1190" r="1.5" fill="#161d2b"/><circle cx="190" cy="1190" r="1.5" fill="#161d2b"/><circle cx="230" cy="1190" r="1.5" fill="#161d2b"/><circle cx="270" cy="1190" r="1.5" fill="#161d2b"/><circle cx="310" cy="1190" r="1.5" fill="#161d2b"/><circle cx="350" cy="1190" r="1.5" fill="#161d2b"/><circle cx="390" cy="1190" r="1.5" fill="#161d2b"/><circle cx="430" cy="1190" r="1.5" fill="#161d2b"/><circle cx="470" cy="1190" r="1.5" fill="#161d2b"/><circle cx="510" cy="1190" r="1.5" fill="#161d2b"/><circle cx="550" cy="1190" r="1.5" fill="#161d2b"/><circle cx="590" cy="1190" r="1.5" fill="#161d2b"/><circle cx="630" cy="1190" r="1.5" fill="#161d2b"/><circle cx="670" cy="1190" r="1.5" fill="#161d2b"/><circle cx="710" cy="1190" r="1.5" fill="#161d2b"/><circle cx="750" cy="1190" r="1.5" fill="#161d2b"/><circle cx="790" cy="1190" r="1.5" fill="#161d2b"/><circle cx="830" cy="1190" r="1.5" fill="#161d2b"/><circle cx="870" cy="1190" r="1.5" fill="#161d2b"/><circle cx="910" cy="1190" r="1.5" fill="#161d2b"/><circle cx="950" cy="1190" r="1.5" fill="#161d2b"/><circle cx="990" cy="1190" r="1.5" fill="#161d2b"/><circle cx="1030" cy="1190" r="1.5" fill="#161d2b"/><circle cx="1070" cy="1190" r="1.5" fill="#161d2b"/><circle cx="1110" cy="1190" r="1.5" fill="#161d2b"/><circle cx="1150" cy="1190" r="1.5" fill="#161d2b"/><circle cx="1190" cy="1190" r="1.5" fill="#161d2b"/>
<rect width="1200" height="1200" fill="url(#vig)"/>

<text x="60" y="86" font-family="ui-monospace, 'SF Mono', Menlo, Monaco, monospace" font-size="30" fill="#3fb950">deadman<tspan fill="#e6edf3">&#9613;</tspan></text>
<text x="1140" y="86" font-family="ui-monospace, 'SF Mono', Menlo, Monaco, monospace" font-size="20" fill="#8b949e" text-anchor="end">local recovery harness &#183; MIT</text>

<text x="606" y="242" font-family="ui-monospace, 'SF Mono', Menlo, Monaco, monospace" font-size="17" fill="#f85149" text-anchor="middle" letter-spacing="4" opacity="0.9">SESSION DIED</text>
<text x="946" y="204" font-family="ui-monospace, 'SF Mono', Menlo, Monaco, monospace" font-size="17" fill="#3fb950" text-anchor="middle" letter-spacing="4">RECOVERED</text>
<polyline points="60,320 150,320 172,320 188,346 204,286 220,320 280,320 330,320 346,346 364,254 382,346 400,320 470,320" fill="none" stroke="#3fb950" stroke-width="3.6" stroke-linecap="round" stroke-linejoin="round" filter="url(#glow)"/>
<polyline points="470,320 742,320" fill="none" stroke="#f85149" stroke-width="3.6" stroke-linecap="round" stroke-linejoin="round" stroke-opacity="0.85" stroke-dasharray="1 11"/>
<polyline points="742,320 788,320 812,320 836,222 862,420 886,320 946,320 1020,320 1140,320" fill="none" stroke="#56d364" stroke-width="4.6" stroke-linecap="round" stroke-linejoin="round" filter="url(#glow)"/>
<circle cx="1140" cy="320" r="7" fill="#56d364" filter="url(#glow)"/>

<text x="600" y="590" font-family="ui-monospace, 'SF Mono', Menlo, Monaco, monospace" font-size="150" font-weight="700" fill="#e6edf3" text-anchor="middle" letter-spacing="10" filter="url(#soft)">DEADMAN</text>
<text x="600" y="666" font-family="ui-monospace, 'SF Mono', Menlo, Monaco, monospace" font-size="34" text-anchor="middle">
 <tspan fill="#f85149">The session died.</tspan><tspan fill="#8b949e">  </tspan><tspan fill="#56d364">The task didn&#8217;t.</tspan></text>

<text x="600" y="770" font-family="ui-monospace, 'SF Mono', Menlo, Monaco, monospace" font-size="21" fill="#8b949e" text-anchor="middle">deterministic supervision &#183; one bounded GPT-5.6 call</text>
<rect x="247" y="859" width="465" height="42" rx="21" fill="#0e1420" stroke="#243247"/><text x="479" y="887" font-family="ui-monospace, 'SF Mono', Menlo, Monaco, monospace" font-size="19" fill="#8b949e" text-anchor="middle">recovery supervisor for coding agents</text><rect x="737" y="859" width="215" height="42" rx="21" fill="#0e1420" stroke="#243247"/><text x="844" y="887" font-family="ui-monospace, 'SF Mono', Menlo, Monaco, monospace" font-size="19" fill="#3fb950" text-anchor="middle">Codex × GPT-5.6</text>

<line x1="330" y1="1000" x2="870" y2="1000" stroke="#1b2534" stroke-width="1"/>
<text x="600" y="1058" font-family="ui-monospace, 'SF Mono', Menlo, Monaco, monospace" font-size="16" fill="#5f8468" text-anchor="middle" letter-spacing="6">OBSERVE &#183; DETECT &#183; DIAGNOSE &#183; RECOVER &#183; VERIFY &#183; REPORT</text>
</svg>